<svg class="main-svg" xmlns="http://www.w3.org/2000/svg" xmlns:xlink="http://www.w3.org/1999/xlink" width="1536" height="734" style="" viewBox="0 0 768 367"><rect x="0" y="0" width="768" height="367" style="fill: rgb(255, 255, 255); fill-opacity: 1;"/><defs id="defs-9392f7"><g class="clips"><clipPath id="clip9392f7xyplot" class="plotclip"><rect width="525" height="177"/></clipPath><clipPath class="axesclip" id="clip9392f7x"><rect x="80" y="0" width="525" height="367"/></clipPath><clipPath class="axesclip" id="clip9392f7y"><rect x="0" y="110" width="768" height="177"/></clipPath><clipPath class="axesclip" id="clip9392f7xy"><rect x="80" y="110" width="525" height="177"/></clipPath></g><g class="gradients"/><g class="patterns"/></defs><g class="bglayer"/><g class="layer-below"><g class="imagelayer"/><g class="shapelayer"/></g><g class="cartesianlayer"><g class="subplot xy"><g class="layer-subplot"><g class="shapelayer"/><g class="imagelayer"/></g><g class="minor-gridlayer"><g class="x"/><g class="y"/></g><g class="gridlayer"><g class="x"/><g class="y"/></g><g class="zerolinelayer"><path class="yzl zl crisp" transform="translate(0,287)" d="M80,0h525" style="stroke: rgb(225, 225, 225); stroke-opacity: 1; stroke-width: 1px;"/></g><g class="layer-between"><g class="shapelayer"/><g class="imagelayer"/></g><path class="xlines-below"/><path class="ylines-below"/><g class="overlines-below"/><g class="xaxislayer-below"/><g class="yaxislayer-below"/><g class="overaxes-below"/><g class="overplot"><g class="xy" transform="translate(80,110)" clip-path="url(#clip9392f7xyplot)"><g class="barlayer mlayer"><g class="trace bars" shape-rendering="crispEdges" style="opacity: 0.7;"><g class="points"><g class="point"><path d="M0,177V172.68H10.29V177Z" style="vector-effect: none; opacity: 1; stroke-width: 0px; fill: rgb(238, 136, 102); fill-opacity: 1;"/></g><g class="point"><path d="M10.29,177V159.12H20.59V177Z" style="vector-effect: none; opacity: 1; stroke-width: 0px; fill: rgb(238, 136, 102); fill-opacity: 1;"/></g><g class="point"><path d="M20.59,177V132.33H30.88V177Z" style="vector-effect: none; opacity: 1; stroke-width: 0px; fill: rgb(238, 136, 102); fill-opacity: 1;"/></g><g class="point"><path d="M30.88,177V98.02H41.18V177Z" style="vector-effect: none; opacity: 1; stroke-width: 0px; fill: rgb(238, 136, 102); fill-opacity: 1;"/></g><g class="point"><path d="M41.18,177V93.96H51.47V177Z" style="vector-effect: none; opacity: 1; stroke-width: 0px; fill: rgb(238, 136, 102); fill-opacity: 1;"/></g><g class="point"><path d="M51.47,177V64.02H61.76V177Z" style="vector-effect: none; opacity: 1; stroke-width: 0px; fill: rgb(238, 136, 102); fill-opacity: 1;"/></g><g class="point"><path d="M61.76,177V45.47H72.06V177Z" style="vector-effect: none; opacity: 1; stroke-width: 0px; fill: rgb(238, 136, 102); fill-opacity: 1;"/></g><g class="point"><path d="M72.06,177V38.59H82.35V177Z" style="vector-effect: none; opacity: 1; stroke-width: 0px; fill: rgb(238, 136, 102); fill-opacity: 1;"/></g><g class="point"><path d="M82.35,177V38.19H92.65V177Z" style="vector-effect: none; opacity: 1; stroke-width: 0px; fill: rgb(238, 136, 102); fill-opacity: 1;"/></g><g class="point"><path d="M92.65,177V28.48H102.94V177Z" style="vector-effect: none; opacity: 1; stroke-width: 0px; fill: rgb(238, 136, 102); fill-opacity: 1;"/></g><g class="point"><path d="M102.94,177V29.23H113.24V177Z" style="vector-effect: none; opacity: 1; stroke-width: 0px; fill: rgb(238, 136, 102); fill-opacity: 1;"/></g><g class="point"><path d="M113.24,177V33.44H123.53V177Z" style="vector-effect: none; opacity: 1; stroke-width: 0px; fill: rgb(238, 136, 102); fill-opacity: 1;"/></g><g class="point"><path d="M123.53,177V30.7H133.82V177Z" style="vector-effect: none; opacity: 1; stroke-width: 0px; fill: rgb(238, 136, 102); fill-opacity: 1;"/></g><g class="point"><path d="M133.82,177V37.1H144.12V177Z" style="vector-effect: none; opacity: 1; stroke-width: 0px; fill: rgb(238, 136, 102); fill-opacity: 1;"/></g><g class="point"><path d="M144.12,177V48.84H154.41V177Z" style="vector-effect: none; opacity: 1; stroke-width: 0px; fill: rgb(238, 136, 102); fill-opacity: 1;"/></g><g class="point"><path d="M154.41,177V55.52H164.71V177Z" style="vector-effect: none; opacity: 1; stroke-width: 0px; fill: rgb(238, 136, 102); fill-opacity: 1;"/></g><g class="point"><path d="M164.71,177V47.8H175V177Z" style="vector-effect: none; opacity: 1; stroke-width: 0px; fill: rgb(238, 136, 102); fill-opacity: 1;"/></g><g class="point"><path d="M175,177V65H185.29V177Z" style="vector-effect: none; opacity: 1; stroke-width: 0px; fill: rgb(238, 136, 102); fill-opacity: 1;"/></g><g class="point"><path d="M185.29,177V77.82H195.59V177Z" style="vector-effect: none; opacity: 1; stroke-width: 0px; fill: rgb(238, 136, 102); fill-opacity: 1;"/></g><g class="point"><path d="M195.59,177V74.28H205.88V177Z" style="vector-effect: none; opacity: 1; stroke-width: 0px; fill: rgb(238, 136, 102); fill-opacity: 1;"/></g><g class="point"><path d="M205.88,177V85.94H216.18V177Z" style="vector-effect: none; opacity: 1; stroke-width: 0px; fill: rgb(238, 136, 102); fill-opacity: 1;"/></g><g class="point"><path d="M216.18,177V89.38H226.47V177Z" style="vector-effect: none; opacity: 1; stroke-width: 0px; fill: rgb(238, 136, 102); fill-opacity: 1;"/></g><g class="point"><path d="M226.47,177V96.67H236.76V177Z" style="vector-effect: none; opacity: 1; stroke-width: 0px; fill: rgb(238, 136, 102); fill-opacity: 1;"/></g><g class="point"><path d="M236.76,177V111.89H247.06V177Z" style="vector-effect: none; opacity: 1; stroke-width: 0px; fill: rgb(238, 136, 102); fill-opacity: 1;"/></g><g class="point"><path d="M247.06,177V102.76H257.35V177Z" style="vector-effect: none; opacity: 1; stroke-width: 0px; fill: rgb(238, 136, 102); fill-opacity: 1;"/></g><g class="point"><path d="M257.35,177V113.46H267.65V177Z" style="vector-effect: none; opacity: 1; stroke-width: 0px; fill: rgb(238, 136, 102); fill-opacity: 1;"/></g><g class="point"><path d="M267.65,177V113.41H277.94V177Z" style="vector-effect: none; opacity: 1; stroke-width: 0px; fill: rgb(238, 136, 102); fill-opacity: 1;"/></g><g class="point"><path d="M277.94,177V129.88H288.24V177Z" style="vector-effect: none; opacity: 1; stroke-width: 0px; fill: rgb(238, 136, 102); fill-opacity: 1;"/></g><g class="point"><path d="M288.24,177V133.28H298.53V177Z" style="vector-effect: none; opacity: 1; stroke-width: 0px; fill: rgb(238, 136, 102); fill-opacity: 1;"/></g><g class="point"><path d="M298.53,177V131H308.82V177Z" style="vector-effect: none; opacity: 1; stroke-width: 0px; fill: rgb(238, 136, 102); fill-opacity: 1;"/></g><g class="point"><path d="M308.82,177V135.21H319.12V177Z" style="vector-effect: none; opacity: 1; stroke-width: 0px; fill: rgb(238, 136, 102); fill-opacity: 1;"/></g><g class="point"><path d="M319.12,177V141.71H329.41V177Z" style="vector-effect: none; opacity: 1; stroke-width: 0px; fill: rgb(238, 136, 102); fill-opacity: 1;"/></g><g class="point"><path d="M329.41,177V141.6H339.71V177Z" style="vector-effect: none; opacity: 1; stroke-width: 0px; fill: rgb(238, 136, 102); fill-opacity: 1;"/></g><g class="point"><path d="M339.71,177V144.98H350V177Z" style="vector-effect: none; opacity: 1; stroke-width: 0px; fill: rgb(238, 136, 102); fill-opacity: 1;"/></g><g class="point"><path d="M350,177V148.14H360.29V177Z" style="vector-effect: none; opacity: 1; stroke-width: 0px; fill: rgb(238, 136, 102); fill-opacity: 1;"/></g><g class="point"><path d="M360.29,177V152.26H370.59V177Z" style="vector-effect: none; opacity: 1; stroke-width: 0px; fill: rgb(238, 136, 102); fill-opacity: 1;"/></g><g class="point"><path d="M370.59,177V155.42H380.88V177Z" style="vector-effect: none; opacity: 1; stroke-width: 0px; fill: rgb(238, 136, 102); fill-opacity: 1;"/></g><g class="point"><path d="M380.88,177V160.05H391.18V177Z" style="vector-effect: none; opacity: 1; stroke-width: 0px; fill: rgb(238, 136, 102); fill-opacity: 1;"/></g><g class="point"><path d="M391.18,177V157.51H401.47V177Z" style="vector-effect: none; opacity: 1; stroke-width: 0px; fill: rgb(238, 136, 102); fill-opacity: 1;"/></g><g class="point"><path d="M401.47,177V161.53H411.76V177Z" style="vector-effect: none; opacity: 1; stroke-width: 0px; fill: rgb(238, 136, 102); fill-opacity: 1;"/></g><g class="point"><path d="M411.76,177V160.47H422.06V177Z" style="vector-effect: none; opacity: 1; stroke-width: 0px; fill: rgb(238, 136, 102); fill-opacity: 1;"/></g><g class="point"><path d="M422.06,177V162.61H432.35V177Z" style="vector-effect: none; opacity: 1; stroke-width: 0px; fill: rgb(238, 136, 102); fill-opacity: 1;"/></g><g class="point"><path d="M432.35,177V165.07H442.65V177Z" style="vector-effect: none; opacity: 1; stroke-width: 0px; fill: rgb(238, 136, 102); fill-opacity: 1;"/></g><g class="point"><path d="M442.65,177V164.43H452.94V177Z" style="vector-effect: none; opacity: 1; stroke-width: 0px; fill: rgb(238, 136, 102); fill-opacity: 1;"/></g><g class="point"><path d="M452.94,177V168.22H463.24V177Z" style="vector-effect: none; opacity: 1; stroke-width: 0px; fill: rgb(238, 136, 102); fill-opacity: 1;"/></g><g class="point"><path d="M463.24,177V167.51H473.53V177Z" style="vector-effect: none; opacity: 1; stroke-width: 0px; fill: rgb(238, 136, 102); fill-opacity: 1;"/></g><g class="point"><path d="M473.53,177V168.69H483.82V177Z" style="vector-effect: none; opacity: 1; stroke-width: 0px; fill: rgb(238, 136, 102); fill-opacity: 1;"/></g><g class="point"><path d="M483.82,177V171.07H494.12V177Z" style="vector-effect: none; opacity: 1; stroke-width: 0px; fill: rgb(238, 136, 102); fill-opacity: 1;"/></g><g class="point"><path d="M494.12,177V170.88H504.41V177Z" style="vector-effect: none; opacity: 1; stroke-width: 0px; fill: rgb(238, 136, 102); fill-opacity: 1;"/></g><g class="point"><path d="M504.41,177V111.81H525V177Z" style="vector-effect: none; opacity: 1; stroke-width: 0px; fill: rgb(238, 136, 102); fill-opacity: 1;"/></g></g></g><g class="trace bars" shape-rendering="crispEdges" style="opacity: 0.7;"><g class="points"><g class="point"><path d="M0,0Z" style="vector-effect: none; opacity: 1; stroke-width: 0px; fill: rgb(119, 170, 221); fill-opacity: 1;"/></g><g class="point"><path d="M10.29,177V176.96H20.59V177Z" style="vector-effect: none; opacity: 1; stroke-width: 0px; fill: rgb(119, 170, 221); fill-opacity: 1;"/></g><g class="point"><path d="M20.59,177V174.16H30.88V177Z" style="vector-effect: none; opacity: 1; stroke-width: 0px; fill: rgb(119, 170, 221); fill-opacity: 1;"/></g><g class="point"><path d="M30.88,177V160.74H41.18V177Z" style="vector-effect: none; opacity: 1; stroke-width: 0px; fill: rgb(119, 170, 221); fill-opacity: 1;"/></g><g class="point"><path d="M41.18,177V137.47H51.47V177Z" style="vector-effect: none; opacity: 1; stroke-width: 0px; fill: rgb(119, 170, 221); fill-opacity: 1;"/></g><g class="point"><path d="M51.47,177V111.7H61.76V177Z" style="vector-effect: none; opacity: 1; stroke-width: 0px; fill: rgb(119, 170, 221); fill-opacity: 1;"/></g><g class="point"><path d="M61.76,177V89.48H72.06V177Z" style="vector-effect: none; opacity: 1; stroke-width: 0px; fill: rgb(119, 170, 221); fill-opacity: 1;"/></g><g class="point"><path d="M72.06,177V70.33H82.35V177Z" style="vector-effect: none; opacity: 1; stroke-width: 0px; fill: rgb(119, 170, 221); fill-opacity: 1;"/></g><g class="point"><path d="M82.35,177V56H92.65V177Z" style="vector-effect: none; opacity: 1; stroke-width: 0px; fill: rgb(119, 170, 221); fill-opacity: 1;"/></g><g class="point"><path d="M92.65,177V45.11H102.94V177Z" style="vector-effect: none; opacity: 1; stroke-width: 0px; fill: rgb(119, 170, 221); fill-opacity: 1;"/></g><g class="point"><path d="M102.94,177V35.96H113.24V177Z" style="vector-effect: none; opacity: 1; stroke-width: 0px; fill: rgb(119, 170, 221); fill-opacity: 1;"/></g><g class="point"><path d="M113.24,177V31.69H123.53V177Z" style="vector-effect: none; opacity: 1; stroke-width: 0px; fill: rgb(119, 170, 221); fill-opacity: 1;"/></g><g class="point"><path d="M123.53,177V27.55H133.82V177Z" style="vector-effect: none; opacity: 1; stroke-width: 0px; fill: rgb(119, 170, 221); fill-opacity: 1;"/></g><g class="point"><path d="M133.82,177V29.1H144.12V177Z" style="vector-effect: none; opacity: 1; stroke-width: 0px; fill: rgb(119, 170, 221); fill-opacity: 1;"/></g><g class="point"><path d="M144.12,177V32.13H154.41V177Z" style="vector-effect: none; opacity: 1; stroke-width: 0px; fill: rgb(119, 170, 221); fill-opacity: 1;"/></g><g class="point"><path d="M154.41,177V39.83H164.71V177Z" style="vector-effect: none; opacity: 1; stroke-width: 0px; fill: rgb(119, 170, 221); fill-opacity: 1;"/></g><g class="point"><path d="M164.71,177V45.77H175V177Z" style="vector-effect: none; opacity: 1; stroke-width: 0px; fill: rgb(119, 170, 221); fill-opacity: 1;"/></g><g class="point"><path d="M175,177V54.69H185.29V177Z" style="vector-effect: none; opacity: 1; stroke-width: 0px; fill: rgb(119, 170, 221); fill-opacity: 1;"/></g><g class="point"><path d="M185.29,177V63.49H195.59V177Z" style="vector-effect: none; opacity: 1; stroke-width: 0px; fill: rgb(119, 170, 221); fill-opacity: 1;"/></g><g class="point"><path d="M195.59,177V69.83H205.88V177Z" style="vector-effect: none; opacity: 1; stroke-width: 0px; fill: rgb(119, 170, 221); fill-opacity: 1;"/></g><g class="point"><path d="M205.88,177V77.36H216.18V177Z" style="vector-effect: none; opacity: 1; stroke-width: 0px; fill: rgb(119, 170, 221); fill-opacity: 1;"/></g><g class="point"><path d="M216.18,177V83.67H226.47V177Z" style="vector-effect: none; opacity: 1; stroke-width: 0px; fill: rgb(119, 170, 221); fill-opacity: 1;"/></g><g class="point"><path d="M226.47,177V93.16H236.76V177Z" style="vector-effect: none; opacity: 1; stroke-width: 0px; fill: rgb(119, 170, 221); fill-opacity: 1;"/></g><g class="point"><path d="M236.76,177V97.3H247.06V177Z" style="vector-effect: none; opacity: 1; stroke-width: 0px; fill: rgb(119, 170, 221); fill-opacity: 1;"/></g><g class="point"><path d="M247.06,177V104.21H257.35V177Z" style="vector-effect: none; opacity: 1; stroke-width: 0px; fill: rgb(119, 170, 221); fill-opacity: 1;"/></g><g class="point"><path d="M257.35,177V110.21H267.65V177Z" style="vector-effect: none; opacity: 1; stroke-width: 0px; fill: rgb(119, 170, 221); fill-opacity: 1;"/></g><g class="point"><path d="M267.65,177V114.86H277.94V177Z" style="vector-effect: none; opacity: 1; stroke-width: 0px; fill: rgb(119, 170, 221); fill-opacity: 1;"/></g><g class="point"><path d="M277.94,177V118.21H288.24V177Z" style="vector-effect: none; opacity: 1; stroke-width: 0px; fill: rgb(119, 170, 221); fill-opacity: 1;"/></g><g class="point"><path d="M288.24,177V123.36H298.53V177Z" style="vector-effect: none; opacity: 1; stroke-width: 0px; fill: rgb(119, 170, 221); fill-opacity: 1;"/></g><g class="point"><path d="M298.53,177V127.59H308.82V177Z" style="vector-effect: none; opacity: 1; stroke-width: 0px; fill: rgb(119, 170, 221); fill-opacity: 1;"/></g><g class="point"><path d="M308.82,177V130.66H319.12V177Z" style="vector-effect: none; opacity: 1; stroke-width: 0px; fill: rgb(119, 170, 221); fill-opacity: 1;"/></g><g class="point"><path d="M319.12,177V134.22H329.41V177Z" style="vector-effect: none; opacity: 1; stroke-width: 0px; fill: rgb(119, 170, 221); fill-opacity: 1;"/></g><g class="point"><path d="M329.41,177V137.6H339.71V177Z" style="vector-effect: none; opacity: 1; stroke-width: 0px; fill: rgb(119, 170, 221); fill-opacity: 1;"/></g><g class="point"><path d="M339.71,177V140.62H350V177Z" style="vector-effect: none; opacity: 1; stroke-width: 0px; fill: rgb(119, 170, 221); fill-opacity: 1;"/></g><g class="point"><path d="M350,177V143.48H360.29V177Z" style="vector-effect: none; opacity: 1; stroke-width: 0px; fill: rgb(119, 170, 221); fill-opacity: 1;"/></g><g class="point"><path d="M360.29,177V145.56H370.59V177Z" style="vector-effect: none; opacity: 1; stroke-width: 0px; fill: rgb(119, 170, 221); fill-opacity: 1;"/></g><g class="point"><path d="M370.59,177V149.22H380.88V177Z" style="vector-effect: none; opacity: 1; stroke-width: 0px; fill: rgb(119, 170, 221); fill-opacity: 1;"/></g><g class="point"><path d="M380.88,177V150.36H391.18V177Z" style="vector-effect: none; opacity: 1; stroke-width: 0px; fill: rgb(119, 170, 221); fill-opacity: 1;"/></g><g class="point"><path d="M391.18,177V151.92H401.47V177Z" style="vector-effect: none; opacity: 1; stroke-width: 0px; fill: rgb(119, 170, 221); fill-opacity: 1;"/></g><g class="point"><path d="M401.47,177V154.52H411.76V177Z" style="vector-effect: none; opacity: 1; stroke-width: 0px; fill: rgb(119, 170, 221); fill-opacity: 1;"/></g><g class="point"><path d="M411.76,177V155.68H422.06V177Z" style="vector-effect: none; opacity: 1; stroke-width: 0px; fill: rgb(119, 170, 221); fill-opacity: 1;"/></g><g class="point"><path d="M422.06,177V156.78H432.35V177Z" style="vector-effect: none; opacity: 1; stroke-width: 0px; fill: rgb(119, 170, 221); fill-opacity: 1;"/></g><g class="point"><path d="M432.35,177V158.86H442.65V177Z" style="vector-effect: none; opacity: 1; stroke-width: 0px; fill: rgb(119, 170, 221); fill-opacity: 1;"/></g><g class="point"><path d="M442.65,177V160.54H452.94V177Z" style="vector-effect: none; opacity: 1; stroke-width: 0px; fill: rgb(119, 170, 221); fill-opacity: 1;"/></g><g class="point"><path d="M452.94,177V161.11H463.24V177Z" style="vector-effect: none; opacity: 1; stroke-width: 0px; fill: rgb(119, 170, 221); fill-opacity: 1;"/></g><g class="point"><path d="M463.24,177V162.83H473.53V177Z" style="vector-effect: none; opacity: 1; stroke-width: 0px; fill: rgb(119, 170, 221); fill-opacity: 1;"/></g><g class="point"><path d="M473.53,177V163.18H483.82V177Z" style="vector-effect: none; opacity: 1; stroke-width: 0px; fill: rgb(119, 170, 221); fill-opacity: 1;"/></g><g class="point"><path d="M483.82,177V164.68H494.12V177Z" style="vector-effect: none; opacity: 1; stroke-width: 0px; fill: rgb(119, 170, 221); fill-opacity: 1;"/></g><g class="point"><path d="M494.12,177V165.97H504.41V177Z" style="vector-effect: none; opacity: 1; stroke-width: 0px; fill: rgb(119, 170, 221); fill-opacity: 1;"/></g><g class="point"><path d="M504.41,177V20.75H525V177Z" style="vector-effect: none; opacity: 1; stroke-width: 0px; fill: rgb(119, 170, 221); fill-opacity: 1;"/></g></g></g><g class="trace bars" shape-rendering="crispEdges" style="opacity: 0.7;"><g class="points"><g class="point"><path d="M0,0Z" style="vector-effect: none; opacity: 1; stroke-width: 0px; fill: rgb(68, 187, 153); fill-opacity: 1;"/></g><g class="point"><path d="M10.29,177V176.97H20.59V177Z" style="vector-effect: none; opacity: 1; stroke-width: 0px; fill: rgb(68, 187, 153); fill-opacity: 1;"/></g><g class="point"><path d="M20.59,177V172.4H30.88V177Z" style="vector-effect: none; opacity: 1; stroke-width: 0px; fill: rgb(68, 187, 153); fill-opacity: 1;"/></g><g class="point"><path d="M30.88,177V155.16H41.18V177Z" style="vector-effect: none; opacity: 1; stroke-width: 0px; fill: rgb(68, 187, 153); fill-opacity: 1;"/></g><g class="point"><path d="M41.18,177V131.07H51.47V177Z" style="vector-effect: none; opacity: 1; stroke-width: 0px; fill: rgb(68, 187, 153); fill-opacity: 1;"/></g><g class="point"><path d="M51.47,177V109.84H61.76V177Z" style="vector-effect: none; opacity: 1; stroke-width: 0px; fill: rgb(68, 187, 153); fill-opacity: 1;"/></g><g class="point"><path d="M61.76,177V91.19H72.06V177Z" style="vector-effect: none; opacity: 1; stroke-width: 0px; fill: rgb(68, 187, 153); fill-opacity: 1;"/></g><g class="point"><path d="M72.06,177V74.5H82.35V177Z" style="vector-effect: none; opacity: 1; stroke-width: 0px; fill: rgb(68, 187, 153); fill-opacity: 1;"/></g><g class="point"><path d="M82.35,177V62.85H92.65V177Z" style="vector-effect: none; opacity: 1; stroke-width: 0px; fill: rgb(68, 187, 153); fill-opacity: 1;"/></g><g class="point"><path d="M92.65,177V50.78H102.94V177Z" style="vector-effect: none; opacity: 1; stroke-width: 0px; fill: rgb(68, 187, 153); fill-opacity: 1;"/></g><g class="point"><path d="M102.94,177V44.63H113.24V177Z" style="vector-effect: none; opacity: 1; stroke-width: 0px; fill: rgb(68, 187, 153); fill-opacity: 1;"/></g><g class="point"><path d="M113.24,177V35.98H123.53V177Z" style="vector-effect: none; opacity: 1; stroke-width: 0px; fill: rgb(68, 187, 153); fill-opacity: 1;"/></g><g class="point"><path d="M123.53,177V34.34H133.82V177Z" style="vector-effect: none; opacity: 1; stroke-width: 0px; fill: rgb(68, 187, 153); fill-opacity: 1;"/></g><g class="point"><path d="M133.82,177V34.03H144.12V177Z" style="vector-effect: none; opacity: 1; stroke-width: 0px; fill: rgb(68, 187, 153); fill-opacity: 1;"/></g><g class="point"><path d="M144.12,177V37.29H154.41V177Z" style="vector-effect: none; opacity: 1; stroke-width: 0px; fill: rgb(68, 187, 153); fill-opacity: 1;"/></g><g class="point"><path d="M154.41,177V43.1H164.71V177Z" style="vector-effect: none; opacity: 1; stroke-width: 0px; fill: rgb(68, 187, 153); fill-opacity: 1;"/></g><g class="point"><path d="M164.71,177V47.8H175V177Z" style="vector-effect: none; opacity: 1; stroke-width: 0px; fill: rgb(68, 187, 153); fill-opacity: 1;"/></g><g class="point"><path d="M175,177V56.26H185.29V177Z" style="vector-effect: none; opacity: 1; stroke-width: 0px; fill: rgb(68, 187, 153); fill-opacity: 1;"/></g><g class="point"><path d="M185.29,177V62.46H195.59V177Z" style="vector-effect: none; opacity: 1; stroke-width: 0px; fill: rgb(68, 187, 153); fill-opacity: 1;"/></g><g class="point"><path d="M195.59,177V68.91H205.88V177Z" style="vector-effect: none; opacity: 1; stroke-width: 0px; fill: rgb(68, 187, 153); fill-opacity: 1;"/></g><g class="point"><path d="M205.88,177V76.93H216.18V177Z" style="vector-effect: none; opacity: 1; stroke-width: 0px; fill: rgb(68, 187, 153); fill-opacity: 1;"/></g><g class="point"><path d="M216.18,177V84.31H226.47V177Z" style="vector-effect: none; opacity: 1; stroke-width: 0px; fill: rgb(68, 187, 153); fill-opacity: 1;"/></g><g class="point"><path d="M226.47,177V90.69H236.76V177Z" style="vector-effect: none; opacity: 1; stroke-width: 0px; fill: rgb(68, 187, 153); fill-opacity: 1;"/></g><g class="point"><path d="M236.76,177V96.94H247.06V177Z" style="vector-effect: none; opacity: 1; stroke-width: 0px; fill: rgb(68, 187, 153); fill-opacity: 1;"/></g><g class="point"><path d="M247.06,177V103.17H257.35V177Z" style="vector-effect: none; opacity: 1; stroke-width: 0px; fill: rgb(68, 187, 153); fill-opacity: 1;"/></g><g class="point"><path d="M257.35,177V106.66H267.65V177Z" style="vector-effect: none; opacity: 1; stroke-width: 0px; fill: rgb(68, 187, 153); fill-opacity: 1;"/></g><g class="point"><path d="M267.65,177V112.68H277.94V177Z" style="vector-effect: none; opacity: 1; stroke-width: 0px; fill: rgb(68, 187, 153); fill-opacity: 1;"/></g><g class="point"><path d="M277.94,177V116.74H288.24V177Z" style="vector-effect: none; opacity: 1; stroke-width: 0px; fill: rgb(68, 187, 153); fill-opacity: 1;"/></g><g class="point"><path d="M288.24,177V120.6H298.53V177Z" style="vector-effect: none; opacity: 1; stroke-width: 0px; fill: rgb(68, 187, 153); fill-opacity: 1;"/></g><g class="point"><path d="M298.53,177V125.97H308.82V177Z" style="vector-effect: none; opacity: 1; stroke-width: 0px; fill: rgb(68, 187, 153); fill-opacity: 1;"/></g><g class="point"><path d="M308.82,177V130.19H319.12V177Z" style="vector-effect: none; opacity: 1; stroke-width: 0px; fill: rgb(68, 187, 153); fill-opacity: 1;"/></g><g class="point"><path d="M319.12,177V132.39H329.41V177Z" style="vector-effect: none; opacity: 1; stroke-width: 0px; fill: rgb(68, 187, 153); fill-opacity: 1;"/></g><g class="point"><path d="M329.41,177V136.36H339.71V177Z" style="vector-effect: none; opacity: 1; stroke-width: 0px; fill: rgb(68, 187, 153); fill-opacity: 1;"/></g><g class="point"><path d="M339.71,177V139.77H350V177Z" style="vector-effect: none; opacity: 1; stroke-width: 0px; fill: rgb(68, 187, 153); fill-opacity: 1;"/></g><g class="point"><path d="M350,177V141.87H360.29V177Z" style="vector-effect: none; opacity: 1; stroke-width: 0px; fill: rgb(68, 187, 153); fill-opacity: 1;"/></g><g class="point"><path d="M360.29,177V144.69H370.59V177Z" style="vector-effect: none; opacity: 1; stroke-width: 0px; fill: rgb(68, 187, 153); fill-opacity: 1;"/></g><g class="point"><path d="M370.59,177V146.96H380.88V177Z" style="vector-effect: none; opacity: 1; stroke-width: 0px; fill: rgb(68, 187, 153); fill-opacity: 1;"/></g><g class="point"><path d="M380.88,177V149.13H391.18V177Z" style="vector-effect: none; opacity: 1; stroke-width: 0px; fill: rgb(68, 187, 153); fill-opacity: 1;"/></g><g class="point"><path d="M391.18,177V150.47H401.47V177Z" style="vector-effect: none; opacity: 1; stroke-width: 0px; fill: rgb(68, 187, 153); fill-opacity: 1;"/></g><g class="point"><path d="M401.47,177V153.81H411.76V177Z" style="vector-effect: none; opacity: 1; stroke-width: 0px; fill: rgb(68, 187, 153); fill-opacity: 1;"/></g><g class="point"><path d="M411.76,177V155H422.06V177Z" style="vector-effect: none; opacity: 1; stroke-width: 0px; fill: rgb(68, 187, 153); fill-opacity: 1;"/></g><g class="point"><path d="M422.06,177V156.49H432.35V177Z" style="vector-effect: none; opacity: 1; stroke-width: 0px; fill: rgb(68, 187, 153); fill-opacity: 1;"/></g><g class="point"><path d="M432.35,177V157.57H442.65V177Z" style="vector-effect: none; opacity: 1; stroke-width: 0px; fill: rgb(68, 187, 153); fill-opacity: 1;"/></g><g class="point"><path d="M442.65,177V159.39H452.94V177Z" style="vector-effect: none; opacity: 1; stroke-width: 0px; fill: rgb(68, 187, 153); fill-opacity: 1;"/></g><g class="point"><path d="M452.94,177V160.62H463.24V177Z" style="vector-effect: none; opacity: 1; stroke-width: 0px; fill: rgb(68, 187, 153); fill-opacity: 1;"/></g><g class="point"><path d="M463.24,177V161.7H473.53V177Z" style="vector-effect: none; opacity: 1; stroke-width: 0px; fill: rgb(68, 187, 153); fill-opacity: 1;"/></g><g class="point"><path d="M473.53,177V163.86H483.82V177Z" style="vector-effect: none; opacity: 1; stroke-width: 0px; fill: rgb(68, 187, 153); fill-opacity: 1;"/></g><g class="point"><path d="M483.82,177V164.53H494.12V177Z" style="vector-effect: none; opacity: 1; stroke-width: 0px; fill: rgb(68, 187, 153); fill-opacity: 1;"/></g><g class="point"><path d="M494.12,177V165.32H504.41V177Z" style="vector-effect: none; opacity: 1; stroke-width: 0px; fill: rgb(68, 187, 153); fill-opacity: 1;"/></g><g class="point"><path d="M504.41,177V16.09H525V177Z" style="vector-effect: none; opacity: 1; stroke-width: 0px; fill: rgb(68, 187, 153); fill-opacity: 1;"/></g></g></g></g></g></g><g class="zerolinelayer-above"/><path class="xlines-above crisp" d="M79,287.5H605" style="fill: none; stroke-width: 1px; stroke: rgb(51, 51, 51); stroke-opacity: 1;"/><path class="ylines-above crisp" d="M79.5,110V287" style="fill: none; stroke-width: 1px; stroke: rgb(51, 51, 51); stroke-opacity: 1;"/><g class="overlines-above"/><g class="xaxislayer-above"><g class="xtick"><text text-anchor="middle" x="0" y="304.8" transform="translate(80,0)" style="font-family: Arial, sans-serif; font-size: 14px; fill: rgb(51, 51, 51); fill-opacity: 1; white-space: pre;">0</text></g><g class="xtick"><text text-anchor="middle" x="0" y="304.8" style="font-family: Arial, sans-serif; font-size: 14px; fill: rgb(51, 51, 51); fill-opacity: 1; white-space: pre;" transform="translate(166.48000000000002,0)">5k</text></g><g class="xtick"><text text-anchor="middle" x="0" y="304.8" style="font-family: Arial, sans-serif; font-size: 14px; fill: rgb(51, 51, 51); fill-opacity: 1; white-space: pre;" transform="translate(252.97,0)">10k</text></g><g class="xtick"><text text-anchor="middle" x="0" y="304.8" style="font-family: Arial, sans-serif; font-size: 14px; fill: rgb(51, 51, 51); fill-opacity: 1; white-space: pre;" transform="translate(339.45,0)">15k</text></g><g class="xtick"><text text-anchor="middle" x="0" y="304.8" style="font-family: Arial, sans-serif; font-size: 14px; fill: rgb(51, 51, 51); fill-opacity: 1; white-space: pre;" transform="translate(425.93,0)">20k</text></g><g class="xtick"><text text-anchor="middle" x="0" y="304.8" style="font-family: Arial, sans-serif; font-size: 14px; fill: rgb(51, 51, 51); fill-opacity: 1; white-space: pre;" transform="translate(512.4200000000001,0)">25k</text></g><g class="xtick"><text text-anchor="middle" x="0" y="304.8" style="font-family: Arial, sans-serif; font-size: 14px; fill: rgb(51, 51, 51); fill-opacity: 1; white-space: pre;" transform="translate(598.9,0)">30k</text></g></g><g class="yaxislayer-above"><g class="ytick"><text text-anchor="end" x="76.2" y="4.8999999999999995" transform="translate(0,287)" style="font-family: Arial, sans-serif; font-size: 14px; fill: rgb(51, 51, 51); fill-opacity: 1; white-space: pre;">0%</text></g><g class="ytick"><text text-anchor="end" x="76.2" y="4.8999999999999995" style="font-family: Arial, sans-serif; font-size: 14px; fill: rgb(51, 51, 51); fill-opacity: 1; white-space: pre;" transform="translate(0,221.75)">2%</text></g><g class="ytick"><text text-anchor="end" x="76.2" y="4.8999999999999995" style="font-family: Arial, sans-serif; font-size: 14px; fill: rgb(51, 51, 51); fill-opacity: 1; white-space: pre;" transform="translate(0,156.5)">4%</text></g></g><g class="overaxes-above"/></g></g><g class="polarlayer"/><g class="smithlayer"/><g class="ternarylayer"/><g class="geolayer"/><g class="funnelarealayer"/><g class="pielayer"/><g class="iciclelayer"/><g class="treemaplayer"/><g class="sunburstlayer"/><g class="glimages"/><defs id="topdefs-9392f7"><g class="clips"/><clipPath id="legend9392f7"><rect width="140" height="96" x="0" y="0"/></clipPath></defs><g class="layer-above"><g class="imagelayer"/><g class="shapelayer"/></g><g class="infolayer"><g class="legend" pointer-events="all" transform="translate(615.5,110)"><rect class="bg" shape-rendering="crispEdges" style="stroke: rgb(68, 68, 68); stroke-opacity: 1; fill: rgb(255, 255, 255); fill-opacity: 1; stroke-width: 0px;" width="140" height="96" x="0" y="0"/><g class="scrollbox" transform="" clip-path="url(#legend9392f7)"><text class="legendtitletext" text-anchor="start" x="2" y="22.1" style="font-family: Arial, sans-serif; font-size: 17px; fill: rgb(51, 51, 51); fill-opacity: 1; white-space: pre;">Data Source</text><g class="groups"><g class="traces" transform="translate(0,37.7)" style="opacity: 1;"><text class="legendtext" text-anchor="start" x="40" y="5.46" style="font-family: Arial, sans-serif; font-size: 14px; fill: rgb(51, 51, 51); fill-opacity: 1; white-space: pre;">RECS 2020</text><g class="layers" style="opacity: 0.7;"><g class="legendfill"/><g class="legendlines"/><g class="legendsymbols"><g class="legendpoints"><path class="legendundefined" d="M6,6H-6V-6H6Z" transform="translate(20,0)" style="stroke-width: 0px; fill: rgb(238, 136, 102); fill-opacity: 1;"/></g></g></g><rect class="legendtoggle" x="0" y="-10.6" width="134.953125" height="21.2" style="fill: rgb(0, 0, 0); fill-opacity: 0;"/></g><g class="traces" transform="translate(0,58.9)" style="opacity: 1;"><text class="legendtext" text-anchor="start" x="40" y="5.46" style="font-family: Arial, sans-serif; font-size: 14px; fill: rgb(51, 51, 51); fill-opacity: 1; white-space: pre;">ResStock 2024</text><g class="layers" style="opacity: 0.7;"><g class="legendfill"/><g class="legendlines"/><g class="legendsymbols"><g class="legendpoints"><path class="legendundefined" d="M6,6H-6V-6H6Z" transform="translate(20,0)" style="stroke-width: 0px; fill: rgb(119, 170, 221); fill-opacity: 1;"/></g></g></g><rect class="legendtoggle" x="0" y="-10.6" width="134.953125" height="21.2" style="fill: rgb(0, 0, 0); fill-opacity: 0;"/></g><g class="traces" transform="translate(0,80.1)" style="opacity: 1;"><text class="legendtext" text-anchor="start" x="40" y="5.46" style="font-family: Arial, sans-serif; font-size: 14px; fill: rgb(51, 51, 51); fill-opacity: 1; white-space: pre;">ResStock 2025</text><g class="layers" style="opacity: 0.7;"><g class="legendfill"/><g class="legendlines"/><g class="legendsymbols"><g class="legendpoints"><path class="legendundefined" d="M6,6H-6V-6H6Z" transform="translate(20,0)" style="stroke-width: 0px; fill: rgb(68, 187, 153); fill-opacity: 1;"/></g></g></g><rect class="legendtoggle" x="0" y="-10.6" width="134.953125" height="21.2" style="fill: rgb(0, 0, 0); fill-opacity: 0;"/></g></g></g><rect class="scrollbar" rx="20" ry="3" width="0" height="0" style="fill: rgb(128, 139, 164); fill-opacity: 1;" x="0" y="0"/></g><g class="g-gtitle"><text class="gtitle" x="384" y="55" text-anchor="middle" dy="0em" style="opacity: 1; font-family: Arial, sans-serif; font-size: 16px; fill: rgb(51, 51, 51); fill-opacity: 1; white-space: pre;"><tspan class="line" dy="0em" x="384" y="55">Distribution of Electricity Consumption </tspan><tspan class="line" dy="1.3em" x="384" y="55">per Occupied Dwelling Unit (U.S. Total)</tspan></text></g><g class="g-xtitle"><text class="xtitle" x="342.5" y="348" text-anchor="middle" style="opacity: 1; font-family: Arial, sans-serif; font-size: 17px; fill: rgb(51, 51, 51); fill-opacity: 1; white-space: pre;">kWh/unit</text></g><g class="g-ytitle"><text class="ytitle" transform="rotate(-90,36,198.5)" x="36" y="198.5" text-anchor="middle" style="opacity: 1; font-family: Arial, sans-serif; font-size: 17px; fill: rgb(51, 51, 51); fill-opacity: 1; white-space: pre;">Stock Share</text></g></g></svg>
