<svg class="main-svg" xmlns="http://www.w3.org/2000/svg" xmlns:xlink="http://www.w3.org/1999/xlink" width="2880" height="1620" style="" viewBox="0 0 1440 810"><rect x="0" y="0" width="1440" height="810" style="fill: rgb(255, 255, 255); fill-opacity: 1;"/><defs id="defs-753fc8"><g class="clips"><clipPath id="clip753fc8xyplot" class="plotclip"><rect width="986" height="620"/></clipPath><clipPath class="axesclip" id="clip753fc8x"><rect x="282" y="0" width="986" height="810"/></clipPath><clipPath class="axesclip" id="clip753fc8y"><rect x="0" y="110" width="1440" height="620"/></clipPath><clipPath class="axesclip" id="clip753fc8xy"><rect x="282" y="110" width="986" height="620"/></clipPath></g><g class="gradients"/><g class="patterns"/></defs><g class="bglayer"/><g class="layer-below"><g class="imagelayer"/><g class="shapelayer"/></g><g class="cartesianlayer"><g class="subplot xy"><g class="layer-subplot"><g class="shapelayer"/><g class="imagelayer"/></g><g class="minor-gridlayer"><g class="x"/><g class="y"/></g><g class="gridlayer"><g class="x"><path class="xgrid crisp" transform="translate(389.11,0)" d="M0,110v620" style="stroke: rgb(235, 240, 248); stroke-opacity: 1; stroke-width: 1px;"/><path class="xgrid crisp" transform="translate(496.23,0)" d="M0,110v620" style="stroke: rgb(235, 240, 248); stroke-opacity: 1; stroke-width: 1px;"/><path class="xgrid crisp" transform="translate(603.3399999999999,0)" d="M0,110v620" style="stroke: rgb(235, 240, 248); stroke-opacity: 1; stroke-width: 1px;"/><path class="xgrid crisp" transform="translate(710.46,0)" d="M0,110v620" style="stroke: rgb(235, 240, 248); stroke-opacity: 1; stroke-width: 1px;"/><path class="xgrid crisp" transform="translate(817.57,0)" d="M0,110v620" style="stroke: rgb(235, 240, 248); stroke-opacity: 1; stroke-width: 1px;"/><path class="xgrid crisp" transform="translate(924.69,0)" d="M0,110v620" style="stroke: rgb(235, 240, 248); stroke-opacity: 1; stroke-width: 1px;"/><path class="xgrid crisp" transform="translate(1031.8,0)" d="M0,110v620" style="stroke: rgb(235, 240, 248); stroke-opacity: 1; stroke-width: 1px;"/><path class="xgrid crisp" transform="translate(1138.92,0)" d="M0,110v620" style="stroke: rgb(235, 240, 248); stroke-opacity: 1; stroke-width: 1px;"/><path class="xgrid crisp" transform="translate(1246.03,0)" d="M0,110v620" style="stroke: rgb(235, 240, 248); stroke-opacity: 1; stroke-width: 1px;"/></g><g class="y"/></g><g class="zerolinelayer"><path class="xzl zl crisp" transform="translate(282,0)" d="M0,110v620" style="stroke: rgb(235, 240, 248); stroke-opacity: 1; stroke-width: 2px;"/></g><g class="layer-between"><g class="shapelayer"/><g class="imagelayer"/></g><path class="xlines-below"/><path class="ylines-below"/><g class="overlines-below"/><g class="xaxislayer-below"/><g class="yaxislayer-below"/><g class="overaxes-below"/><g class="overplot"><g class="xy" transform="translate(282,110)" clip-path="url(#clip753fc8xyplot)"><g class="boxlayer mlayer"><g class="trace boxes" style="opacity: 1;"><path class="box" d="M67.03,617.05V593.43M46.97,617.05V593.43H90.89V617.05ZM46.97,605.24H10.21M90.89,605.24H452.75M10.21,612.32V598.15M452.75,612.32V598.15" style="vector-effect: none; stroke-width: 2px; stroke: rgb(68, 187, 153); stroke-opacity: 1; fill: rgb(68, 187, 153); fill-opacity: 0.5;"/><path class="box" d="M33.83,513.71V490.1M23.39,513.71V490.1H47.25V513.71ZM23.39,501.9H5.07M47.25,501.9H379.4M5.07,508.99V494.82M379.4,508.99V494.82" style="vector-effect: none; stroke-width: 2px; stroke: rgb(68, 187, 153); stroke-opacity: 1; fill: rgb(68, 187, 153); fill-opacity: 0.5;"/><path class="box" d="M36.1,410.38V386.76M24.51,410.38V386.76H54.71V410.38ZM24.51,398.57H5.95M54.71,398.57H479.65M5.95,405.66V391.49M479.65,405.66V391.49" style="vector-effect: none; stroke-width: 2px; stroke: rgb(68, 187, 153); stroke-opacity: 1; fill: rgb(68, 187, 153); fill-opacity: 0.5;"/><path class="box" d="M45.82,307.05V283.43M32.83,307.05V283.43H65.42V307.05ZM32.83,295.24H7.45M65.42,295.24H487.87M7.45,302.32V288.15M487.87,302.32V288.15" style="vector-effect: none; stroke-width: 2px; stroke: rgb(68, 187, 153); stroke-opacity: 1; fill: rgb(68, 187, 153); fill-opacity: 0.5;"/><path class="box" d="M69.2,203.71V180.1M48.29,203.71V180.1H101.37V203.71ZM48.29,191.9H8.04M101.37,191.9H843.53M8.04,198.99V184.82M843.53,198.99V184.82" style="vector-effect: none; stroke-width: 2px; stroke: rgb(68, 187, 153); stroke-opacity: 1; fill: rgb(68, 187, 153); fill-opacity: 0.5;"/><path class="box" d="M56.84,100.38V76.76M37.66,100.38V76.76H86.33V100.38ZM37.66,88.57H5.07M86.33,88.57H843.53M5.07,95.66V81.49M843.53,95.66V81.49" style="vector-effect: none; stroke-width: 2px; stroke: rgb(68, 187, 153); stroke-opacity: 1; fill: rgb(68, 187, 153); fill-opacity: 0.5;"/><g class="points"/><g class="points"/><g class="points"/><g class="points"/><g class="points"/><g class="points"/><path class="mean" d="M72.22,617.05V593.43" style="fill: none; vector-effect: non-scaling-stroke; stroke-width: 2; stroke-dasharray: 4px, 2px; stroke: rgb(68, 187, 153); stroke-opacity: 1;"/><path class="mean" d="M37.4,513.71V490.1" style="fill: none; vector-effect: non-scaling-stroke; stroke-width: 2; stroke-dasharray: 4px, 2px; stroke: rgb(68, 187, 153); stroke-opacity: 1;"/><path class="mean" d="M43.63,410.38V386.76" style="fill: none; vector-effect: non-scaling-stroke; stroke-width: 2; stroke-dasharray: 4px, 2px; stroke: rgb(68, 187, 153); stroke-opacity: 1;"/><path class="mean" d="M53.21,307.05V283.43" style="fill: none; vector-effect: non-scaling-stroke; stroke-width: 2; stroke-dasharray: 4px, 2px; stroke: rgb(68, 187, 153); stroke-opacity: 1;"/><path class="mean" d="M81.79,203.71V180.1" style="fill: none; vector-effect: non-scaling-stroke; stroke-width: 2; stroke-dasharray: 4px, 2px; stroke: rgb(68, 187, 153); stroke-opacity: 1;"/><path class="mean" d="M68.56,100.38V76.76" style="fill: none; vector-effect: non-scaling-stroke; stroke-width: 2; stroke-dasharray: 4px, 2px; stroke: rgb(68, 187, 153); stroke-opacity: 1;"/></g><g class="trace boxes" style="opacity: 1;"><path class="box" d="M64.66,587.52V563.9M44.44,587.52V563.9H89.29V587.52ZM44.44,575.71H8.54M89.29,575.71H555.66M8.54,582.8V568.63M555.66,582.8V568.63" style="vector-effect: none; stroke-width: 2px; stroke: rgb(119, 170, 221); stroke-opacity: 1; fill: rgb(119, 170, 221); fill-opacity: 0.5;"/><path class="box" d="M36.89,484.19V460.57M24.97,484.19V460.57H52.94V484.19ZM24.97,472.38H4.82M52.94,472.38H562.21M4.82,479.47V465.3M562.21,479.47V465.3" style="vector-effect: none; stroke-width: 2px; stroke: rgb(119, 170, 221); stroke-opacity: 1; fill: rgb(119, 170, 221); fill-opacity: 0.5;"/><path class="box" d="M37.57,380.86V357.24M25.6,380.86V357.24H57.62V380.86ZM25.6,369.05H6.86M57.62,369.05H390.14M6.86,376.13V361.96M390.14,376.13V361.96" style="vector-effect: none; stroke-width: 2px; stroke: rgb(119, 170, 221); stroke-opacity: 1; fill: rgb(119, 170, 221); fill-opacity: 0.5;"/><path class="box" d="M45.63,277.52V253.9M32.88,277.52V253.9H65.96V277.52ZM32.88,265.71H9.07M65.96,265.71H615.29M9.07,272.8V258.63M615.29,272.8V258.63" style="vector-effect: none; stroke-width: 2px; stroke: rgb(119, 170, 221); stroke-opacity: 1; fill: rgb(119, 170, 221); fill-opacity: 0.5;"/><path class="box" d="M65.86,174.19V150.57M45.48,174.19V150.57H98.14V174.19ZM45.48,162.38H7.1M98.14,162.38H817.83M7.1,169.47V155.3M817.83,169.47V155.3" style="vector-effect: none; stroke-width: 2px; stroke: rgb(119, 170, 221); stroke-opacity: 1; fill: rgb(119, 170, 221); fill-opacity: 0.5;"/><path class="box" d="M55.8,70.86V47.24M37.33,70.86V47.24H84.88V70.86ZM37.33,59.05H4.82M84.88,59.05H817.83M4.82,66.13V51.96M817.83,66.13V51.96" style="vector-effect: none; stroke-width: 2px; stroke: rgb(119, 170, 221); stroke-opacity: 1; fill: rgb(119, 170, 221); fill-opacity: 0.5;"/><g class="points"/><g class="points"/><g class="points"/><g class="points"/><g class="points"/><g class="points"/><path class="mean" d="M70.66,587.52V563.9" style="fill: none; vector-effect: non-scaling-stroke; stroke-width: 2; stroke-dasharray: 4px, 2px; stroke: rgb(119, 170, 221); stroke-opacity: 1;"/><path class="mean" d="M41.94,484.19V460.57" style="fill: none; vector-effect: non-scaling-stroke; stroke-width: 2; stroke-dasharray: 4px, 2px; stroke: rgb(119, 170, 221); stroke-opacity: 1;"/><path class="mean" d="M46.12,380.86V357.24" style="fill: none; vector-effect: non-scaling-stroke; stroke-width: 2; stroke-dasharray: 4px, 2px; stroke: rgb(119, 170, 221); stroke-opacity: 1;"/><path class="mean" d="M54.64,277.52V253.9" style="fill: none; vector-effect: non-scaling-stroke; stroke-width: 2; stroke-dasharray: 4px, 2px; stroke: rgb(119, 170, 221); stroke-opacity: 1;"/><path class="mean" d="M78.88,174.19V150.57" style="fill: none; vector-effect: non-scaling-stroke; stroke-width: 2; stroke-dasharray: 4px, 2px; stroke: rgb(119, 170, 221); stroke-opacity: 1;"/><path class="mean" d="M67.77,70.86V47.24" style="fill: none; vector-effect: non-scaling-stroke; stroke-width: 2; stroke-dasharray: 4px, 2px; stroke: rgb(119, 170, 221); stroke-opacity: 1;"/></g><g class="trace boxes" style="opacity: 1;"><path class="box" d="M62.49,558V534.38M38.81,558V534.38H90.05V558ZM38.81,546.19H1M90.05,546.19H240.75M1,553.28V539.1M240.75,553.28V539.1" style="vector-effect: none; stroke-width: 2px; stroke: rgb(238, 136, 102); stroke-opacity: 1; fill: rgb(238, 136, 102); fill-opacity: 0.5;"/><path class="box" d="M28.35,454.67V431.05M17.8,454.67V431.05H42.36V454.67ZM17.8,442.86H0.22M42.36,442.86H189.14M0.22,449.94V435.77M189.14,449.94V435.77" style="vector-effect: none; stroke-width: 2px; stroke: rgb(238, 136, 102); stroke-opacity: 1; fill: rgb(238, 136, 102); fill-opacity: 0.5;"/><path class="box" d="M30.43,351.33V327.71M19.24,351.33V327.71H48.39V351.33ZM19.24,339.52H0.79M48.39,339.52H170.42M0.79,346.61V332.44M170.42,346.61V332.44" style="vector-effect: none; stroke-width: 2px; stroke: rgb(238, 136, 102); stroke-opacity: 1; fill: rgb(238, 136, 102); fill-opacity: 0.5;"/><path class="box" d="M39.32,248V224.38M26.77,248V224.38H58.17V248ZM26.77,236.19H0.41M58.17,236.19H176.05M0.41,243.28V229.1M176.05,243.28V229.1" style="vector-effect: none; stroke-width: 2px; stroke: rgb(238, 136, 102); stroke-opacity: 1; fill: rgb(238, 136, 102); fill-opacity: 0.5;"/><path class="box" d="M58.44,144.67V121.05M39.32,144.67V121.05H84.4V144.67ZM39.32,132.86H0.31M84.4,132.86H986M0.31,139.94V125.77M986,139.94V125.77" style="vector-effect: none; stroke-width: 2px; stroke: rgb(238, 136, 102); stroke-opacity: 1; fill: rgb(238, 136, 102); fill-opacity: 0.5;"/><path class="box" d="M48.44,41.33V17.71M30.1,41.33V17.71H73.97V41.33ZM30.1,29.52H0.22M73.97,29.52H986M0.22,36.61V22.44M986,36.61V22.44" style="vector-effect: none; stroke-width: 2px; stroke: rgb(238, 136, 102); stroke-opacity: 1; fill: rgb(238, 136, 102); fill-opacity: 0.5;"/><g class="points"/><g class="points"/><g class="points"/><g class="points"/><g class="points"/><g class="points"/><path class="mean" d="M66.71,558V534.38" style="fill: none; vector-effect: non-scaling-stroke; stroke-width: 2; stroke-dasharray: 4px, 2px; stroke: rgb(238, 136, 102); stroke-opacity: 1;"/><path class="mean" d="M32.63,454.67V431.05" style="fill: none; vector-effect: non-scaling-stroke; stroke-width: 2; stroke-dasharray: 4px, 2px; stroke: rgb(238, 136, 102); stroke-opacity: 1;"/><path class="mean" d="M35.7,351.33V327.71" style="fill: none; vector-effect: non-scaling-stroke; stroke-width: 2; stroke-dasharray: 4px, 2px; stroke: rgb(238, 136, 102); stroke-opacity: 1;"/><path class="mean" d="M45.22,248V224.38" style="fill: none; vector-effect: non-scaling-stroke; stroke-width: 2; stroke-dasharray: 4px, 2px; stroke: rgb(238, 136, 102); stroke-opacity: 1;"/><path class="mean" d="M66.42,144.67V121.05" style="fill: none; vector-effect: non-scaling-stroke; stroke-width: 2; stroke-dasharray: 4px, 2px; stroke: rgb(238, 136, 102); stroke-opacity: 1;"/><path class="mean" d="M56.59,41.33V17.71" style="fill: none; vector-effect: non-scaling-stroke; stroke-width: 2; stroke-dasharray: 4px, 2px; stroke: rgb(238, 136, 102); stroke-opacity: 1;"/></g></g></g></g><g class="zerolinelayer-above"/><path class="xlines-above crisp" d="M0,0" style="fill: none;"/><path class="ylines-above crisp" d="M0,0" style="fill: none;"/><g class="overlines-above"/><g class="xaxislayer-above"><g class="xtick"><text text-anchor="middle" x="0" y="745" transform="translate(282,0)" style="font-family: Arial, sans-serif; font-size: 14px; fill: rgb(51, 51, 51); fill-opacity: 1; white-space: pre;">0</text></g><g class="xtick"><text text-anchor="middle" x="0" y="745" style="font-family: Arial, sans-serif; font-size: 14px; fill: rgb(51, 51, 51); fill-opacity: 1; white-space: pre;" transform="translate(389.11,0)">20k</text></g><g class="xtick"><text text-anchor="middle" x="0" y="745" style="font-family: Arial, sans-serif; font-size: 14px; fill: rgb(51, 51, 51); fill-opacity: 1; white-space: pre;" transform="translate(496.23,0)">40k</text></g><g class="xtick"><text text-anchor="middle" x="0" y="745" style="font-family: Arial, sans-serif; font-size: 14px; fill: rgb(51, 51, 51); fill-opacity: 1; white-space: pre;" transform="translate(603.3399999999999,0)">60k</text></g><g class="xtick"><text text-anchor="middle" x="0" y="745" style="font-family: Arial, sans-serif; font-size: 14px; fill: rgb(51, 51, 51); fill-opacity: 1; white-space: pre;" transform="translate(710.46,0)">80k</text></g><g class="xtick"><text text-anchor="middle" x="0" y="745" style="font-family: Arial, sans-serif; font-size: 14px; fill: rgb(51, 51, 51); fill-opacity: 1; white-space: pre;" transform="translate(817.57,0)">100k</text></g><g class="xtick"><text text-anchor="middle" x="0" y="745" style="font-family: Arial, sans-serif; font-size: 14px; fill: rgb(51, 51, 51); fill-opacity: 1; white-space: pre;" transform="translate(924.69,0)">120k</text></g><g class="xtick"><text text-anchor="middle" x="0" y="745" style="font-family: Arial, sans-serif; font-size: 14px; fill: rgb(51, 51, 51); fill-opacity: 1; white-space: pre;" transform="translate(1031.8,0)">140k</text></g><g class="xtick"><text text-anchor="middle" x="0" y="745" style="font-family: Arial, sans-serif; font-size: 14px; fill: rgb(51, 51, 51); fill-opacity: 1; white-space: pre;" transform="translate(1138.92,0)">160k</text></g><g class="xtick"><text text-anchor="middle" x="0" y="745" style="font-family: Arial, sans-serif; font-size: 14px; fill: rgb(51, 51, 51); fill-opacity: 1; white-space: pre;" transform="translate(1246.03,0)">180k</text></g></g><g class="yaxislayer-above"><g class="ytick"><text text-anchor="end" x="281" y="4.8999999999999995" transform="translate(-70,685.71)" style="font-family: Arial, sans-serif; font-size: 14px; fill: rgb(51, 51, 51); fill-opacity: 1; white-space: pre;">Mobile Home</text></g><g class="ytick"><text text-anchor="end" x="281" y="4.8999999999999995" style="font-family: Arial, sans-serif; font-size: 14px; fill: rgb(51, 51, 51); fill-opacity: 1; white-space: pre;" transform="translate(-70,582.38)">Multi-Family with 5+ Units</text></g><g class="ytick"><text text-anchor="end" x="281" y="4.8999999999999995" style="font-family: Arial, sans-serif; font-size: 14px; fill: rgb(51, 51, 51); fill-opacity: 1; white-space: pre;" transform="translate(-70,479.05)">Multi-Family with 2 - 4 Units</text></g><g class="ytick"><text text-anchor="end" x="281" y="4.8999999999999995" style="font-family: Arial, sans-serif; font-size: 14px; fill: rgb(51, 51, 51); fill-opacity: 1; white-space: pre;" transform="translate(-70,375.71)">Single-Family Attached</text></g><g class="ytick"><text text-anchor="end" x="281" y="4.8999999999999995" style="font-family: Arial, sans-serif; font-size: 14px; fill: rgb(51, 51, 51); fill-opacity: 1; white-space: pre;" transform="translate(-70,272.38)">Single-Family Detached</text></g><g class="ytick"><text text-anchor="end" x="281" y="4.8999999999999995" style="font-family: Arial, sans-serif; font-size: 14px; fill: rgb(51, 51, 51); fill-opacity: 1; white-space: pre;" transform="translate(-70,169.05)">US Total</text></g></g><g class="overaxes-above"/></g></g><g class="polarlayer"/><g class="smithlayer"/><g class="ternarylayer"/><g class="geolayer"/><g class="funnelarealayer"/><g class="pielayer"/><g class="iciclelayer"/><g class="treemaplayer"/><g class="sunburstlayer"/><g class="glimages"/><defs id="topdefs-753fc8"><g class="clips"/><clipPath id="legend753fc8"><rect width="140" height="96" x="0" y="0"/></clipPath></defs><g class="layer-above"><g class="imagelayer"/><g class="shapelayer"/></g><g class="infolayer"><g class="legend" pointer-events="all" transform="translate(1287.72,110)"><rect class="bg" shape-rendering="crispEdges" style="stroke: rgb(68, 68, 68); stroke-opacity: 1; fill: rgb(255, 255, 255); fill-opacity: 1; stroke-width: 0px;" width="140" height="96" x="0" y="0"/><g class="scrollbox" transform="" clip-path="url(#legend753fc8)"><text class="legendtitletext" text-anchor="start" x="2" y="22.1" style="font-family: Arial, sans-serif; font-size: 17px; fill: rgb(51, 51, 51); fill-opacity: 1; white-space: pre;">Data Source</text><g class="groups"><g class="traces" transform="translate(0,37.7)" style="opacity: 1;"><text class="legendtext" text-anchor="start" x="40" y="5.46" style="font-family: Arial, sans-serif; font-size: 14px; fill: rgb(51, 51, 51); fill-opacity: 1; white-space: pre;">RECS 2020</text><g class="layers" style="opacity: 1;"><g class="legendfill"/><g class="legendlines"/><g class="legendsymbols"><g class="legendpoints"><path class="legendbox" d="M6,6H-6V-6H6Z" transform="translate(20,0)" style="stroke-width: 2px; fill: rgb(238, 136, 102); fill-opacity: 0.5; stroke: rgb(238, 136, 102); stroke-opacity: 1;"/></g></g></g><rect class="legendtoggle" x="0" y="-10.6" width="134.953125" height="21.2" style="fill: rgb(0, 0, 0); fill-opacity: 0;"/></g><g class="traces" transform="translate(0,58.9)" style="opacity: 1;"><text class="legendtext" text-anchor="start" x="40" y="5.46" style="font-family: Arial, sans-serif; font-size: 14px; fill: rgb(51, 51, 51); fill-opacity: 1; white-space: pre;">ResStock 2024</text><g class="layers" style="opacity: 1;"><g class="legendfill"/><g class="legendlines"/><g class="legendsymbols"><g class="legendpoints"><path class="legendbox" d="M6,6H-6V-6H6Z" transform="translate(20,0)" style="stroke-width: 2px; fill: rgb(119, 170, 221); fill-opacity: 0.5; stroke: rgb(119, 170, 221); stroke-opacity: 1;"/></g></g></g><rect class="legendtoggle" x="0" y="-10.6" width="134.953125" height="21.2" style="fill: rgb(0, 0, 0); fill-opacity: 0;"/></g><g class="traces" transform="translate(0,80.1)" style="opacity: 1;"><text class="legendtext" text-anchor="start" x="40" y="5.46" style="font-family: Arial, sans-serif; font-size: 14px; fill: rgb(51, 51, 51); fill-opacity: 1; white-space: pre;">ResStock 2025</text><g class="layers" style="opacity: 1;"><g class="legendfill"/><g class="legendlines"/><g class="legendsymbols"><g class="legendpoints"><path class="legendbox" d="M6,6H-6V-6H6Z" transform="translate(20,0)" style="stroke-width: 2px; fill: rgb(68, 187, 153); fill-opacity: 0.5; stroke: rgb(68, 187, 153); stroke-opacity: 1;"/></g></g></g><rect class="legendtoggle" x="0" y="-10.6" width="134.953125" height="21.2" style="fill: rgb(0, 0, 0); fill-opacity: 0;"/></g></g></g><rect class="scrollbar" rx="20" ry="3" width="0" height="0" style="fill: rgb(128, 139, 164); fill-opacity: 1;" x="0" y="0"/></g><g class="g-gtitle"><text class="gtitle" x="720" y="55" text-anchor="middle" dy="0em" style="opacity: 1; font-family: Arial, sans-serif; font-size: 16px; fill: rgb(51, 51, 51); fill-opacity: 1; white-space: pre;"><tspan class="line" dy="0em" x="720" y="55">Distribution of Electricity Consumption </tspan><tspan class="line" dy="1.3em" x="720" y="55">per Occupied Dwelling Unit by Building Type</tspan></text></g><g class="g-xtitle"><text class="xtitle" x="775" y="774.4" text-anchor="middle" style="opacity: 1; font-family: Arial, sans-serif; font-size: 17px; fill: rgb(51, 51, 51); fill-opacity: 1; white-space: pre;">kWh/unit</text></g><g class="g-ytitle"/><g class="annotation" data-index="0" style="opacity: 1;"><g class="annotation-text-g" transform="rotate(0,262.5,715.24)"><g class="cursor-pointer" transform="translate(238,708)"><rect class="bg" x="0.5" y="0.5" width="48" height="14" style="stroke-width: 1px; stroke: rgb(0, 0, 0); stroke-opacity: 0; fill: rgb(0, 0, 0); fill-opacity: 0;"/><text class="annotation-text" text-anchor="middle" x="24.3828125" y="11" style="font-family: Arial, sans-serif; font-size: 10px; fill: rgb(51, 51, 51); fill-opacity: 1; white-space: pre;">n=27221  </text></g></g></g><g class="annotation" data-index="1" style="opacity: 1;"><g class="annotation-text-g" transform="rotate(0,262.5,611.9)"><g class="cursor-pointer" transform="translate(238,604)"><rect class="bg" x="0.5" y="0.5" width="48" height="14" style="stroke-width: 1px; stroke: rgb(0, 0, 0); stroke-opacity: 0; fill: rgb(0, 0, 0); fill-opacity: 0;"/><text class="annotation-text" text-anchor="middle" x="24.3828125" y="11" style="font-family: Arial, sans-serif; font-size: 10px; fill: rgb(51, 51, 51); fill-opacity: 1; white-space: pre;">n=87075  </text></g></g></g><g class="annotation" data-index="2" style="opacity: 1;"><g class="annotation-text-g" transform="rotate(0,262.5,508.57)"><g class="cursor-pointer" transform="translate(238,501)"><rect class="bg" x="0.5" y="0.5" width="48" height="14" style="stroke-width: 1px; stroke: rgb(0, 0, 0); stroke-opacity: 0; fill: rgb(0, 0, 0); fill-opacity: 0;"/><text class="annotation-text" text-anchor="middle" x="24.3828125" y="11" style="font-family: Arial, sans-serif; font-size: 10px; fill: rgb(51, 51, 51); fill-opacity: 1; white-space: pre;">n=37497  </text></g></g></g><g class="annotation" data-index="3" style="opacity: 1;"><g class="annotation-text-g" transform="rotate(0,262.5,405.24)"><g class="cursor-pointer" transform="translate(238,398)"><rect class="bg" x="0.5" y="0.5" width="48" height="14" style="stroke-width: 1px; stroke: rgb(0, 0, 0); stroke-opacity: 0; fill: rgb(0, 0, 0); fill-opacity: 0;"/><text class="annotation-text" text-anchor="middle" x="24.3828125" y="11" style="font-family: Arial, sans-serif; font-size: 10px; fill: rgb(51, 51, 51); fill-opacity: 1; white-space: pre;">n=29214  </text></g></g></g><g class="annotation" data-index="4" style="opacity: 1;"><g class="annotation-text-g" transform="rotate(0,260,301.9)"><g class="cursor-pointer" transform="translate(233,294)"><rect class="bg" x="0.5" y="0.5" width="53" height="14" style="stroke-width: 1px; stroke: rgb(0, 0, 0); stroke-opacity: 0; fill: rgb(0, 0, 0); fill-opacity: 0;"/><text class="annotation-text" text-anchor="middle" x="27.1640625" y="11" style="font-family: Arial, sans-serif; font-size: 10px; fill: rgb(51, 51, 51); fill-opacity: 1; white-space: pre;">n=302327  </text></g></g></g><g class="annotation" data-index="5" style="opacity: 1;"><g class="annotation-text-g" transform="rotate(0,260,198.57)"><g class="cursor-pointer" transform="translate(233,191)"><rect class="bg" x="0.5" y="0.5" width="53" height="14" style="stroke-width: 1px; stroke: rgb(0, 0, 0); stroke-opacity: 0; fill: rgb(0, 0, 0); fill-opacity: 0;"/><text class="annotation-text" text-anchor="middle" x="27.1640625" y="11" style="font-family: Arial, sans-serif; font-size: 10px; fill: rgb(51, 51, 51); fill-opacity: 1; white-space: pre;">n=483334  </text></g></g></g><g class="annotation" data-index="6" style="opacity: 1;"><g class="annotation-text-g" transform="rotate(0,262.5,685.71)"><g class="cursor-pointer" transform="translate(238,678)"><rect class="bg" x="0.5" y="0.5" width="48" height="14" style="stroke-width: 1px; stroke: rgb(0, 0, 0); stroke-opacity: 0; fill: rgb(0, 0, 0); fill-opacity: 0;"/><text class="annotation-text" text-anchor="middle" x="24.3828125" y="11" style="font-family: Arial, sans-serif; font-size: 10px; fill: rgb(51, 51, 51); fill-opacity: 1; white-space: pre;">n=27331  </text></g></g></g><g class="annotation" data-index="7" style="opacity: 1;"><g class="annotation-text-g" transform="rotate(0,262.5,582.38)"><g class="cursor-pointer" transform="translate(238,575)"><rect class="bg" x="0.5" y="0.5" width="48" height="14" style="stroke-width: 1px; stroke: rgb(0, 0, 0); stroke-opacity: 0; fill: rgb(0, 0, 0); fill-opacity: 0;"/><text class="annotation-text" text-anchor="middle" x="24.3828125" y="11" style="font-family: Arial, sans-serif; font-size: 10px; fill: rgb(51, 51, 51); fill-opacity: 1; white-space: pre;">n=86955  </text></g></g></g><g class="annotation" data-index="8" style="opacity: 1;"><g class="annotation-text-g" transform="rotate(0,262.5,479.05)"><g class="cursor-pointer" transform="translate(238,472)"><rect class="bg" x="0.5" y="0.5" width="48" height="14" style="stroke-width: 1px; stroke: rgb(0, 0, 0); stroke-opacity: 0; fill: rgb(0, 0, 0); fill-opacity: 0;"/><text class="annotation-text" text-anchor="middle" x="24.3828125" y="11" style="font-family: Arial, sans-serif; font-size: 10px; fill: rgb(51, 51, 51); fill-opacity: 1; white-space: pre;">n=37495  </text></g></g></g><g class="annotation" data-index="9" style="opacity: 1;"><g class="annotation-text-g" transform="rotate(0,263,375.71)"><g class="cursor-pointer" transform="translate(239,368)"><rect class="bg" x="0.5" y="0.5" width="47" height="14" style="stroke-width: 1px; stroke: rgb(0, 0, 0); stroke-opacity: 0; fill: rgb(0, 0, 0); fill-opacity: 0;"/><text class="annotation-text" text-anchor="middle" x="24.015625" y="11" style="font-family: Arial, sans-serif; font-size: 10px; fill: rgb(51, 51, 51); fill-opacity: 1; white-space: pre;">n=29114  </text></g></g></g><g class="annotation" data-index="10" style="opacity: 1;"><g class="annotation-text-g" transform="rotate(0,260,272.38)"><g class="cursor-pointer" transform="translate(233,265)"><rect class="bg" x="0.5" y="0.5" width="53" height="14" style="stroke-width: 1px; stroke: rgb(0, 0, 0); stroke-opacity: 0; fill: rgb(0, 0, 0); fill-opacity: 0;"/><text class="annotation-text" text-anchor="middle" x="27.1640625" y="11" style="font-family: Arial, sans-serif; font-size: 10px; fill: rgb(51, 51, 51); fill-opacity: 1; white-space: pre;">n=302448  </text></g></g></g><g class="annotation" data-index="11" style="opacity: 1;"><g class="annotation-text-g" transform="rotate(0,260,169.05)"><g class="cursor-pointer" transform="translate(233,162)"><rect class="bg" x="0.5" y="0.5" width="53" height="14" style="stroke-width: 1px; stroke: rgb(0, 0, 0); stroke-opacity: 0; fill: rgb(0, 0, 0); fill-opacity: 0;"/><text class="annotation-text" text-anchor="middle" x="27.1640625" y="11" style="font-family: Arial, sans-serif; font-size: 10px; fill: rgb(51, 51, 51); fill-opacity: 1; white-space: pre;">n=483343  </text></g></g></g><g class="annotation" data-index="12" style="opacity: 1;"><g class="annotation-text-g" transform="rotate(0,268,656.19)"><g class="cursor-pointer" transform="translate(249,649)"><rect class="bg" x="0.5" y="0.5" width="37" height="14" style="stroke-width: 1px; stroke: rgb(0, 0, 0); stroke-opacity: 0; fill: rgb(0, 0, 0); fill-opacity: 0;"/><text class="annotation-text" text-anchor="middle" x="18.828125" y="11" style="font-family: Arial, sans-serif; font-size: 10px; fill: rgb(51, 51, 51); fill-opacity: 1; white-space: pre;">n=974  </text></g></g></g><g class="annotation" data-index="13" style="opacity: 1;"><g class="annotation-text-g" transform="rotate(0,265.5,552.86)"><g class="cursor-pointer" transform="translate(244,545)"><rect class="bg" x="0.5" y="0.5" width="42" height="14" style="stroke-width: 1px; stroke: rgb(0, 0, 0); stroke-opacity: 0; fill: rgb(0, 0, 0); fill-opacity: 0;"/><text class="annotation-text" text-anchor="middle" x="21.609375" y="11" style="font-family: Arial, sans-serif; font-size: 10px; fill: rgb(51, 51, 51); fill-opacity: 1; white-space: pre;">n=2439  </text></g></g></g><g class="annotation" data-index="14" style="opacity: 1;"><g class="annotation-text-g" transform="rotate(0,265.5,449.52)"><g class="cursor-pointer" transform="translate(244,442)"><rect class="bg" x="0.5" y="0.5" width="42" height="14" style="stroke-width: 1px; stroke: rgb(0, 0, 0); stroke-opacity: 0; fill: rgb(0, 0, 0); fill-opacity: 0;"/><text class="annotation-text" text-anchor="middle" x="21.609375" y="11" style="font-family: Arial, sans-serif; font-size: 10px; fill: rgb(51, 51, 51); fill-opacity: 1; white-space: pre;">n=1013  </text></g></g></g><g class="annotation" data-index="15" style="opacity: 1;"><g class="annotation-text-g" transform="rotate(0,265.5,346.19)"><g class="cursor-pointer" transform="translate(244,339)"><rect class="bg" x="0.5" y="0.5" width="42" height="14" style="stroke-width: 1px; stroke: rgb(0, 0, 0); stroke-opacity: 0; fill: rgb(0, 0, 0); fill-opacity: 0;"/><text class="annotation-text" text-anchor="middle" x="21.609375" y="11" style="font-family: Arial, sans-serif; font-size: 10px; fill: rgb(51, 51, 51); fill-opacity: 1; white-space: pre;">n=1751  </text></g></g></g><g class="annotation" data-index="16" style="opacity: 1;"><g class="annotation-text-g" transform="rotate(0,262.5,242.86)"><g class="cursor-pointer" transform="translate(238,235)"><rect class="bg" x="0.5" y="0.5" width="48" height="14" style="stroke-width: 1px; stroke: rgb(0, 0, 0); stroke-opacity: 0; fill: rgb(0, 0, 0); fill-opacity: 0;"/><text class="annotation-text" text-anchor="middle" x="24.3828125" y="11" style="font-family: Arial, sans-serif; font-size: 10px; fill: rgb(51, 51, 51); fill-opacity: 1; white-space: pre;">n=12319  </text></g></g></g><g class="annotation" data-index="17" style="opacity: 1;"><g class="annotation-text-g" transform="rotate(0,262.5,139.52)"><g class="cursor-pointer" transform="translate(238,132)"><rect class="bg" x="0.5" y="0.5" width="48" height="14" style="stroke-width: 1px; stroke: rgb(0, 0, 0); stroke-opacity: 0; fill: rgb(0, 0, 0); fill-opacity: 0;"/><text class="annotation-text" text-anchor="middle" x="24.3828125" y="11" style="font-family: Arial, sans-serif; font-size: 10px; fill: rgb(51, 51, 51); fill-opacity: 1; white-space: pre;">n=18496  </text></g></g></g></g></svg>
